<svg xmlns="http://www.w3.org/2000/svg" viewBox="0 0 24 24" fill="#fff"><path d="m16.5 13.5 1.2 1.2c.2-.2.3-.4.3-.7v-1h-1.5v.5zM10 13h-.5v.5h-2v-3L6.3 9.3c-.2.2-.3.4-.3.7v4c0 .3.1.5.3.7.2.2.4.3.7.3h3c.3 0 .5-.1.7-.3.2-.2.3-.4.3-.7l-1-1zM14.5 11.5v-1h2v.5H18v-1c0-.3-.1-.5-.3-.7-.2-.2-.4-.3-.7-.3h-3c-.3 0-.5.1-.7.3-.2.2-.3.4-.3.7l1.5 1.5z"/><path d="M20.4 4.6C20 4.2 19.5 4 19 4H5c-.5 0-1 .2-1.4.6C3.2 5 3 5.4 3 6v12c0 .6.2 1 .6 1.4.4.4.9.6 1.4.6h14c.5 0 1-.2 1.4-.6.4-.4.6-.9.6-1.4V6c0-.5-.2-1-.6-1.4zm-.9.9v12.8L6.7 5.5h12.8zm-15 13V5.8l12.7 12.7H4.5z"/></svg>
