<svg xmlns="http://www.w3.org/2000/svg" viewBox="0 0 24 24"><path d="M5 4c-.6 0-1 .2-1.4.6C3.2 5 3 5.4 3 6v12c0 .6.2 1 .6 1.4.4.4.8.6 1.4.6h14c.5 0 1-.2 1.4-.6.4-.4.6-.9.6-1.4V6c0-.5-.2-1-.6-1.4-.4-.4-.9-.6-1.4-.6H5m-.5 1.5h15v13h-15v-13M7 9c-.3 0-.5.1-.7.3-.2.2-.3.4-.3.7v4c0 .3.1.5.3.7.2.2.4.3.7.3h3c.3 0 .5-.1.7-.3.2-.2.3-.4.3-.7v-1H9.5v.5h-2v-3h2v.5H11v-1c0-.3-.1-.5-.3-.7-.2-.2-.4-.3-.7-.3H7m7 0c-.3 0-.5.1-.7.3-.2.2-.3.4-.3.7v4c0 .3.1.5.3.7.2.2.4.3.7.3h3c.3 0 .5-.1.7-.3.2-.2.3-.4.3-.7v-1h-1.5v.5h-2v-3h2v.5H18v-1c0-.3-.1-.5-.3-.7-.2-.2-.4-.3-.7-.3h-3z" style="fill:#fff"/></svg>
