<svg xmlns="http://www.w3.org/2000/svg" viewBox="0 0 24 24"><defs><style>.cls-1{fill:#676778}.cls-2{fill:none;stroke:#676778;stroke-linecap:round;stroke-linejoin:round;stroke-width:1.5px}</style></defs><g id="Layer_1"><path d="M9.5 12h11M9.5 19h11M9.5 5h11" class="cls-2"/><path d="M5 6.5c.8 0 1.5-.7 1.5-1.5S5.8 3.5 5 3.5 3.5 4.2 3.5 5 4.2 6.5 5 6.5ZM5 13.5c.8 0 1.5-.7 1.5-1.5s-.7-1.5-1.5-1.5-1.5.7-1.5 1.5.7 1.5 1.5 1.5ZM5 20.5c.8 0 1.5-.7 1.5-1.5s-.7-1.5-1.5-1.5-1.5.7-1.5 1.5.7 1.5 1.5 1.5Z" class="cls-1"/></g></svg>
