<svg xmlns="http://www.w3.org/2000/svg" viewBox="0 0 24 24" fill="#666"><path d="M3.7 21h-.5c-.1 0-.2-.1-.2-.2s0-.2.2-.3c.1 0 .4-.2.6-.3.5-.1.9-.3 1.3-.6s.7-.7 1-1.4c.5-1.1.9-2.2 1.3-3.1.4-1 .8-1.9 1.2-2.9.4-.9.7-1.9 1.1-2.9.4-1 .8-2.1 1.2-3.3 0-.2.2-.5.2-.7 0-.2.1-.5.1-.8.2 0 .3-.1.5-.2.2 0 .3-.1.5-.2s.3-.3.3-.5.1-.3.2-.4v.6c.4 1.3.9 2.7 1.3 4 .5 1.4.9 2.7 1.3 4 .4 1.3.8 2.4 1.2 3.4.4 1 .6 1.8.8 2.5.2.7.5 1.2.8 1.6.3.3.6.6.9.7.3.1.6.2 1 .3.3 0 .5.1.7.2.1.1.2.2.2.4s0 .2-.2.2H13.3c-.1 0-.2-.1-.2-.2s0-.2.3-.3c.2 0 .4-.1.6-.2.6 0 1-.2 1.2-.4.2-.2.4-.5.4-.7s0-.6-.2-1.1c-.1-.5-.2-1-.4-1.6-.2-.6-.3-1.1-.4-1.5 0-.1-.1-.2-.2-.2H8.8c-.1 0-.2.2-.2.4s-.1.4-.3.8c-.1.4-.2.8-.4 1.2s-.2.8-.3 1.1c0 .3-.1.5-.1.6 0 .4.1.7.4 1 .3.3.7.4 1.1.5.6.2.9.3.9.5s0 .2-.2.2H3.6Zm6-7.5h4c.2 0 .4 0 .4-.1v-.2l-2-6.4c-.1-.3-.2-.5-.2-.5s-.1.1-.2.4l-2.4 6.4v.2s0 .1.1.2h.4Z"/></svg>
